<svg width="20" height="20" viewBox="0 0 20 20" fill="none" xmlns="http://www.w3.org/2000/svg">
<g clip-path="url(#clip0_8_1267)">
<path d="M6 6V2C6 0.9 6.9 0 8 0H18C18.5304 0 19.0391 0.210714 19.4142 0.585786C19.7893 0.960859 20 1.46957 20 2V12C20 12.5304 19.7893 13.0391 19.4142 13.4142C19.0391 13.7893 18.5304 14 18 14H14V18C14 18.5304 13.7893 19.0391 13.4142 19.4142C13.0391 19.7893 12.5304 20 12 20H2C1.46957 20 0.960859 19.7893 0.585786 19.4142C0.210714 19.0391 0 18.5304 0 18V8C0 6.9 0.9 6 2 6H6ZM8 6H12C12.5304 6 13.0391 6.21071 13.4142 6.58579C13.7893 6.96086 14 7.46957 14 8V12H18V2H8V6ZM2 8V18H12V8H2Z" fill="#02071D"/>
</g>
<defs>
<clipPath id="clip0_8_1267">
<rect width="20" height="20" fill="white"/>
</clipPath>
</defs>
</svg>
