<svg width="211" height="26" viewBox="0 0 211 26" fill="none" xmlns="http://www.w3.org/2000/svg">
<path d="M11.5973 4.3171H14.1875V0.18309C13.7406 0.126741 12.2038 0 10.4139 0C6.67939 0 4.12111 2.15257 4.12111 6.10892V9.75H0V14.3715H4.12111V26H9.17381V14.3726H13.1282L13.756 9.75107H9.17263V6.56716C9.17381 5.23141 9.56631 4.3171 11.5973 4.3171Z" fill="#23252B"/>
<path d="M79.3993 7.1783C79.4158 7.4322 79.4158 7.68613 79.4158 7.94002C79.4158 15.684 74.0807 24.6071 64.3297 24.6071C61.3256 24.607 58.535 23.6457 56.1875 21.9773C56.6127 22.0291 57.0402 22.0533 57.4679 22.0499C59.8544 22.0566 62.1733 21.175 64.0506 19.5472C62.9442 19.5249 61.8718 19.1215 60.983 18.3931C60.0942 17.6648 59.4335 16.648 59.0932 15.4847C59.4245 15.5427 59.7592 15.573 60.0946 15.5754C60.5654 15.5739 61.0342 15.5069 61.4899 15.376C60.2892 15.1077 59.2095 14.3885 58.4344 13.3404C57.6594 12.2923 57.2366 10.9801 57.2381 9.62668V9.554C57.9728 10.0071 58.794 10.2619 59.6347 10.2978C58.5093 9.46857 57.7128 8.19607 57.4077 6.74006C57.1027 5.28405 57.3121 3.7543 57.9932 2.46307C59.3251 4.2741 60.9866 5.75566 62.87 6.81165C64.7534 7.86765 66.8167 8.47452 68.9261 8.5929C68.841 8.15168 68.797 7.702 68.7947 7.25088C68.7957 6.07592 69.1162 4.92838 69.7146 3.95707C70.313 2.98576 71.1618 2.23547 72.1508 1.80349C73.1398 1.37151 74.2235 1.27777 75.2613 1.53441C76.2992 1.79105 77.2433 2.38625 77.9712 3.24282C79.1587 2.99019 80.2974 2.51154 81.3365 1.82823C80.9411 3.18192 80.1123 4.32974 79.0055 5.05639C80.0725 4.92952 81.1067 4.60297 82.0588 4.14962C81.3328 5.31723 80.4338 6.34115 79.3995 7.17827L79.3993 7.1783Z" fill="#23252B"/>
<path d="M143.411 1C144.839 1 145.991 2.13701 146.059 3.475V25L143.34 22.727L141.846 21.389L140.217 19.9911L140.898 22.1961H126.639C125.215 22.1961 124.059 21.1311 124.059 19.7201V3.48002C124.059 2.14199 125.217 1.003 126.644 1.003H143.403L143.411 1ZM137.196 6.68301H137.166L136.961 6.88302C139.066 7.483 140.085 8.42 140.085 8.42C138.728 7.752 137.505 7.41798 136.282 7.283C135.399 7.14801 134.515 7.21899 133.768 7.283H133.565C133.088 7.283 132.072 7.483 130.711 8.018C130.237 8.22101 129.964 8.35394 129.964 8.35394C129.964 8.35394 130.982 7.35192 133.225 6.81692L133.088 6.68193C133.088 6.68193 131.389 6.61792 129.556 7.95194C129.556 7.95194 127.723 11.0959 127.723 14.972C127.723 14.972 128.738 16.712 131.525 16.7781C131.525 16.7781 131.931 16.245 132.342 15.776C130.778 15.308 130.169 14.372 130.169 14.372C130.286 14.4321 130.399 14.4988 130.509 14.572H130.57C130.582 14.5723 130.593 14.5752 130.604 14.5804C130.614 14.5856 130.623 14.5929 130.631 14.602V14.608C130.638 14.6172 130.647 14.6247 130.658 14.6299C130.668 14.6351 130.68 14.6379 130.692 14.638C131.027 14.774 131.362 14.908 131.636 15.038C132.223 15.2852 132.836 15.4651 133.465 15.574C134.409 15.709 135.492 15.774 136.725 15.574C137.335 15.4391 137.944 15.307 138.553 15.039C138.95 14.839 139.437 14.639 139.972 14.3022C139.972 14.3022 139.363 15.2381 137.733 15.7062C138.068 16.1721 138.54 16.7062 138.54 16.7062C141.327 16.6462 142.41 14.9062 142.471 14.9802C142.471 11.1101 140.628 7.96014 140.628 7.96014C138.967 6.74612 137.413 6.70013 137.138 6.70013L137.195 6.68012L137.196 6.68301ZM137.367 11.096C138.081 11.096 138.657 11.696 138.657 12.431C138.657 13.171 138.078 13.7711 137.367 13.7711C136.656 13.7711 136.077 13.1711 136.077 12.4371C136.079 11.6971 136.659 11.0991 137.367 11.0991V11.096ZM132.753 11.096C133.464 11.096 134.038 11.696 134.038 12.431C134.038 13.171 133.459 13.7711 132.748 13.7711C132.037 13.7711 131.458 13.1711 131.458 12.4371C131.458 11.6971 132.037 11.0991 132.748 11.0991L132.753 11.096Z" fill="#23252B"/>
<path d="M210.003 8.46805C209.951 7.29911 209.762 6.49548 209.491 5.79909C209.208 5.06818 208.776 4.40438 208.221 3.85012C207.667 3.29586 207.003 2.86333 206.272 2.58016C205.571 2.30936 204.772 2.12034 203.602 2.06879C202.425 2.01291 202.051 2 199.063 2C196.076 2 195.702 2.01291 194.528 2.06446C193.359 2.11601 192.555 2.30521 191.859 2.57583C191.123 2.85196 190.457 3.28624 189.907 3.84801C189.349 4.39765 188.916 5.06189 188.639 5.79491C188.368 6.49548 188.179 7.29474 188.128 8.46369C188.072 9.64136 188.059 10.0153 188.059 13.0022C188.059 15.9891 188.072 16.363 188.123 17.5363C188.175 18.7052 188.364 19.5089 188.635 20.2052C188.918 20.9362 189.351 21.6 189.905 22.1542C190.459 22.7085 191.123 23.141 191.854 23.4242C192.555 23.695 193.355 23.884 194.524 23.9355C195.697 23.9872 196.071 24 199.059 24C202.046 24 202.42 23.9872 203.594 23.9355C204.763 23.884 205.567 23.695 206.263 23.4242C206.995 23.1415 207.659 22.7091 208.213 22.1548C208.768 21.6004 209.2 20.9364 209.483 20.2052C209.754 19.5047 209.943 18.7053 209.994 17.5363C210.046 16.363 210.059 15.9891 210.059 13.0022C210.059 10.0153 210.054 9.64143 210.003 8.46812L210.003 8.46805ZM208.021 17.4503C207.974 18.5247 207.794 19.1049 207.643 19.4917C207.46 19.9662 207.179 20.3971 206.819 20.7568C206.459 21.1166 206.028 21.3971 205.554 21.5804C205.167 21.7309 204.582 21.9115 203.512 21.9585C202.351 22.0102 202.003 22.023 199.067 22.023C196.131 22.023 195.779 22.0102 194.623 21.9585C193.548 21.9112 192.968 21.7309 192.581 21.5804C192.103 21.4052 191.671 21.1246 191.317 20.7595C190.953 20.4046 190.672 19.973 190.496 19.4961C190.346 19.1093 190.165 18.5248 190.118 17.4547C190.066 16.2942 190.053 15.9461 190.053 13.0107C190.053 10.0754 190.066 9.72299 190.118 8.567C190.165 7.49257 190.346 6.91237 190.496 6.5256C190.671 6.04698 190.954 5.61475 191.322 5.26193C191.676 4.89769 192.108 4.61728 192.585 4.44116C192.972 4.29074 193.557 4.11012 194.627 4.06283C195.788 4.01128 196.136 3.99837 199.072 3.99837C202.012 3.99837 202.36 4.01128 203.516 4.06283C204.591 4.11012 205.171 4.29063 205.558 4.44116C206.036 4.61629 206.468 4.89684 206.822 5.26193C207.186 5.61681 207.467 6.04846 207.643 6.52545C207.794 6.91226 207.974 7.49675 208.022 8.56686C208.073 9.72732 208.086 10.0752 208.086 13.0106C208.086 15.946 208.073 16.2898 208.022 17.4502L208.021 17.4503Z" fill="#23252B"/>
<path d="M199.063 7.35107C197.945 7.35109 196.852 7.68255 195.923 8.30356C194.993 8.92456 194.268 9.80721 193.841 10.8399C193.413 11.8726 193.301 13.0089 193.519 14.1052C193.737 15.2014 194.275 16.2084 195.066 16.9988C195.857 17.7892 196.864 18.3274 197.96 18.5455C199.057 18.7636 200.193 18.6516 201.226 18.2239C202.259 17.7961 203.142 17.0718 203.763 16.1424C204.384 15.213 204.716 14.1204 204.716 13.0026C204.715 11.5038 204.12 10.0666 203.06 9.00676C202 7.94697 200.562 7.35143 199.063 7.35107ZM199.063 16.6686C198.338 16.6685 197.629 16.4535 197.026 16.0507C196.423 15.6479 195.953 15.0753 195.675 14.4054C195.398 13.7356 195.325 12.9985 195.467 12.2873C195.608 11.5762 195.958 10.923 196.47 10.4103C196.983 9.89761 197.636 9.54847 198.348 9.40703C199.059 9.26559 199.796 9.3382 200.466 9.61567C201.136 9.89315 201.709 10.363 202.112 10.9659C202.515 11.5688 202.73 12.2776 202.73 13.0026C202.73 13.9749 202.343 14.9072 201.656 15.5947C200.968 16.2822 200.035 16.6684 199.063 16.6686Z" fill="#23252B"/>
<path d="M206.259 7.12608C206.259 7.38704 206.182 7.64213 206.037 7.85911C205.892 8.07609 205.686 8.24521 205.444 8.34508C205.203 8.44494 204.938 8.47108 204.682 8.42017C204.426 8.36927 204.191 8.24361 204.006 8.05909C203.822 7.87457 203.696 7.63948 203.645 7.38353C203.594 7.12759 203.62 6.8623 203.72 6.6212C203.82 6.38011 203.989 6.17403 204.206 6.02904C204.423 5.88405 204.678 5.80666 204.939 5.80664C205.113 5.80663 205.284 5.84075 205.444 5.90706C205.604 5.97336 205.75 6.07055 205.872 6.19307C205.995 6.31559 206.092 6.46105 206.159 6.62114C206.225 6.78122 206.259 6.9528 206.259 7.12608Z" fill="#23252B"/>
</svg>
